<svg width="54" height="34" viewBox="0 0 54 34" fill="none" xmlns="http://www.w3.org/2000/svg">
<path d="M49.0686 0H4.54859C2.21654 0 0.308594 1.91256 0.308594 4.25V29.75C0.308594 32.0874 2.21654 34 4.54859 34H49.0686C51.4005 34 53.3086 32.0874 53.3086 29.75V4.25C53.3086 1.91256 51.4005 0 49.0686 0ZM46.7366 27.8376L45.0405 29.5376L32.3205 18.7L26.8085 23.375L21.2965 18.7L8.57654 29.5376L6.88054 27.8374L19.3885 17L6.88065 6.16256L8.57665 4.46256L26.8085 20.1876L45.0405 4.46256L46.7366 6.16256L34.2286 17L46.7366 27.8376Z" fill="#ED447E"/>
</svg>
