<svg width="246" height="246" viewBox="0 0 246 246" fill="none" xmlns="http://www.w3.org/2000/svg">
<path d="M0.308594 0V35.0144H35.323V0H0.308594ZM70.3373 0V35.0144H105.352V0H70.3373ZM140.366 0V35.0144H175.38V0H140.366ZM210.395 0V35.0144H245.409V0H210.395ZM0.308594 70.0287V105.043H35.323V70.0287H0.308594ZM70.3373 70.0287V105.043H105.352V70.0287H70.3373ZM140.366 70.0287V105.043H175.38V70.0287H140.366ZM210.395 70.0287V105.043H245.409V70.0287H210.395ZM0.308594 140.057V175.072H35.323V140.057H0.308594ZM70.3373 140.057V175.072H105.352V140.057H70.3373ZM140.366 140.057V175.072H175.38V140.057H140.366ZM210.395 140.057V175.072H245.409V140.057H210.395ZM0.308594 210.086V245.101H35.323V210.086H0.308594ZM70.3373 210.086V245.101H105.352V210.086H70.3373ZM140.366 210.086V245.101H175.38V210.086H140.366ZM210.395 210.086V245.101H245.409V210.086H210.395Z" fill="#E91E63" fill-opacity="0.1"/>
</svg>
