<svg width="58" height="57" viewBox="0 0 58 57" fill="none" xmlns="http://www.w3.org/2000/svg">
<path d="M36.6933 0.0216507C35.1468 0.184446 33.6816 1.24262 32.8677 2.78917C31.8095 4.90551 23.9953 20.6153 22.4488 22.1618C20.9022 23.7084 18.8673 24.4409 16.5881 24.4409V57H45.0773C46.7867 57 48.2518 55.9418 48.903 54.4767C48.903 54.4767 57.2869 30.79 57.2869 28.5108C57.2869 26.2317 55.4962 24.4409 53.2171 24.4409H41.0074C38.7283 24.4409 36.9375 22.406 36.9375 20.3711C36.9375 18.3361 40.112 7.51023 40.7632 5.3939C41.4144 3.27756 40.3562 0.998422 38.2399 0.265844C37.6701 0.103048 37.2631 -0.059747 36.6933 0.0216507ZM0.308594 24.4409V57H8.44836V24.4409H0.308594Z" fill="#E5AF40"/>
</svg>
