<svg width="43" height="42" viewBox="0 0 43 42" fill="none" xmlns="http://www.w3.org/2000/svg">
<path d="M42.3086 41.0705V25.541C42.3086 17.2198 37.8671 13.3479 31.9451 13.3479C27.1663 13.3479 25.0243 15.9769 23.8312 17.8222V13.9845H14.8275C14.9469 16.5268 14.8275 41.0705 14.8275 41.0705H23.8312V25.944C23.8312 25.1368 23.889 24.327 24.1278 23.7495C24.7775 22.1312 26.2593 20.4564 28.7452 20.4564C32.0042 20.4564 33.3062 22.9397 33.3062 26.5805V41.0719L42.3086 41.0705ZM5.34203 10.2872C8.48022 10.2872 10.4372 8.20555 10.4372 5.60548C10.3794 2.94898 8.48153 0.927734 5.40241 0.927734C2.32328 0.927734 0.308594 2.94767 0.308594 5.60548C0.308594 8.20555 2.26291 10.2872 5.28559 10.2872H5.34203ZM9.84391 41.0705V13.9845H0.841469V41.0705H9.84391Z" fill="#ED447E"/>
</svg>
