<svg width="77" height="76" viewBox="0 0 77 76" fill="none" xmlns="http://www.w3.org/2000/svg">
<path d="M38.308 10.8574C50.3005 10.8574 60.0223 20.5792 60.0223 32.5717C60.0223 41.0643 54.8232 51.3573 44.5406 63.5868C44.239 63.9454 43.9071 64.2774 43.5484 64.5789C40.1063 67.4731 34.9697 67.0289 32.0755 63.5868C21.7928 51.3573 16.5938 41.0643 16.5938 32.5717C16.5938 20.5792 26.3156 10.8574 38.308 10.8574ZM38.308 14.9289C28.5642 14.9289 20.6652 22.8278 20.6652 32.5717C20.6652 39.8926 25.4689 49.4029 35.1918 60.9666C36.6388 62.6877 39.2072 62.9098 40.9282 61.4627C41.1076 61.3119 41.2735 61.1459 41.4243 60.9666C51.1472 49.4029 55.9509 39.8926 55.9509 32.5717C55.9509 22.8278 48.0519 14.9289 38.308 14.9289ZM38.308 23.0717C43.5532 23.0717 47.808 27.3265 47.808 32.5717C47.808 37.8169 43.5532 42.0717 38.308 42.0717C33.0629 42.0717 28.808 37.8169 28.808 32.5717C28.808 27.3265 33.0629 23.0717 38.308 23.0717ZM38.308 27.1431C35.3115 27.1431 32.8795 29.5751 32.8795 32.5717C32.8795 35.5683 35.3115 38.0003 38.308 38.0003C41.3046 38.0003 43.7366 35.5683 43.7366 32.5717C43.7366 29.5751 41.3046 27.1431 38.308 27.1431Z" fill="#E91E63"/>
</svg>
