<svg width="51" height="50" viewBox="0 0 51 50" fill="none" xmlns="http://www.w3.org/2000/svg">
<path d="M50.0837 39.8552L49.8348 39.1052C49.2454 37.3529 47.3134 35.5254 45.5385 35.0439L38.9696 33.2491C37.1882 32.7644 34.6471 33.4162 33.3437 34.7197L30.9663 37.0975C22.3263 34.7624 15.5511 27.9858 13.2196 19.3459L15.5971 16.9679C16.9005 15.6643 17.552 13.1261 17.0674 11.3444L15.2762 4.77102C14.7915 2.99256 12.961 1.06023 11.2124 0.477194L10.4625 0.225029C8.7106 -0.358011 6.21205 0.231632 4.9088 1.53511L1.35252 5.09529C0.717197 5.72738 0.311146 7.5353 0.311146 7.5419C0.186763 18.8348 4.61404 29.715 12.6007 37.7033C20.5678 45.6719 31.4053 50.0935 42.6633 49.9985C42.7222 49.9985 44.5822 49.5989 45.2175 48.9667L48.7738 45.4097C50.0771 44.1064 50.6665 41.6075 50.0837 39.8552Z" fill="#E91E63" fill-opacity="0.83"/>
</svg>
