<svg width="14" height="14" viewBox="0 0 14 14" fill="none" xmlns="http://www.w3.org/2000/svg">
<path d="M13 5.71243C13 5.81821 12.9375 5.93359 12.8125 6.05859L10.1947 8.61147L10.8149 12.2172C10.8196 12.2509 10.8219 12.299 10.8219 12.3615C10.8219 12.4624 10.7967 12.5478 10.7462 12.6175C10.6957 12.6872 10.6224 12.7221 10.5262 12.7221C10.4349 12.7221 10.3388 12.6932 10.2378 12.6356L7 10.9336L3.76202 12.6355C3.65625 12.6932 3.5601 12.722 3.47356 12.722C3.3726 12.722 3.29688 12.6872 3.24639 12.6174C3.19592 12.5477 3.17069 12.4624 3.17069 12.3614C3.17069 12.3326 3.17549 12.2845 3.18509 12.2172L3.80528 8.61143L1.18028 6.05855C1.06009 5.92877 1 5.8134 1 5.71243C1 5.53455 1.13462 5.42398 1.40385 5.3807L5.02404 4.85426L6.64663 1.57301C6.73798 1.3759 6.85577 1.27734 7 1.27734C7.14423 1.27734 7.26202 1.3759 7.35337 1.57301L8.97596 4.85426L12.5962 5.3807C12.8654 5.42398 13 5.53455 13 5.71243Z" fill="#E5AF40"/>
</svg>
